<svg xmlns="http://www.w3.org/2000/svg" viewBox="0 0 32 32"><path fill-rule="evenodd" d="M10.78 8.39A13.76 13.76 0 005.7 4.47a10.2 10.2 0 00-5.71-.63v-.1C1.36 3.24 2.69 3 4.22 3c3.5 0 7.03 1.33 9.2 3.46a49.3 49.3 0 012.97 3.05c.95 1.12 2.07 2.65 3.2 4.12.67.91 1.35 1.82 2 2.66l.06.07V7.1H24V25c-1.94-1.64-3.9-4.37-5.64-6.82l-1.8-2.45c-.07-.07-4.15-5.46-5.78-7.34zm15.4 19.14c1.33.53 2.73.77 4.05.84.61 0 1.23-.07 1.77-.17v.1c-1.36.45-2.82.7-4.35.7-3.5 0-7.04-1.36-9.21-3.5a50.78 50.78 0 01-2.83-3.04c-.95-1.12-2.07-2.66-3.2-4.13-.67-.9-1.35-1.82-2-2.66l-.03-.07v9.24H8V7c1.97 1.64 3.94 4.37 5.68 6.82l1.8 2.45c.03.03 3.98 5.42 5.6 7.34a14.98 14.98 0 005.1 3.92z"/></svg>